# xmcd CD database file
#
# Track frame offsets:
#	150
#	18974
#	36823
#	60067
#	82797
#	105204
#	125147
#	150245
#	166730
#	188995
#	215089
#	235104
#
# Disc length: 3431 seconds
#
# Revision: 0
# Processed by: cddbd v1.5.2PL0 Copyright (c) Steve Scherf et al.
# Submitted via: CDex 1.70beta1
#
DISCID=820d650c
DTITLE=北浪良佳 - Little Girl Blue
DYEAR=2007
DGENRE=Jazz
TTITLE0=I Wish You Love
TTITLE1=How Long Has This Been Going On?
TTITLE2=So In Love
TTITLE3=小さな空
TTITLE4=燃える秋
TTITLE5=Amapola
TTITLE6=Little Girl Blue
TTITLE7=Baby, Won't You Please Come Home
TTITLE8=色彩都市
TTITLE9=I'm Glad There Is You
TTITLE10=Ave Maria
TTITLE11=Mona Lisa
EXTD=YEAR: 2007
EXTT0=
EXTT1=
EXTT2=
EXTT3=
EXTT4=
EXTT5=
EXTT6=
EXTT7=
EXTT8=
EXTT9=
EXTT10=
EXTT11=
PLAYORDER=
